<svg width="20" height="20" viewBox="0 0 20 20" fill="none" xmlns="http://www.w3.org/2000/svg">
<path d="M9.43734 14.1667H10.6873V10.7083H14.1665V9.45834H10.6873V5.83334H9.43734V9.45834H5.83317V10.7083H9.43734V14.1667ZM9.99984 18.3333C8.81928 18.3333 7.72206 18.1215 6.70817 17.6979C5.69428 17.2743 4.81234 16.6875 4.06234 15.9375C3.31234 15.1875 2.72553 14.3056 2.30192 13.2917C1.87831 12.2778 1.6665 11.1806 1.6665 10C1.6665 8.83334 1.87831 7.74306 2.30192 6.72917C2.72553 5.71528 3.31234 4.83334 4.06234 4.08334C4.81234 3.33334 5.69428 2.74306 6.70817 2.31251C7.72206 1.88195 8.81928 1.66667 9.99984 1.66667C11.1665 1.66667 12.2568 1.88195 13.2707 2.31251C14.2846 2.74306 15.1665 3.33334 15.9165 4.08334C16.6665 4.83334 17.2568 5.71528 17.6873 6.72917C18.1179 7.74306 18.3332 8.83334 18.3332 10C18.3332 11.1806 18.1179 12.2778 17.6873 13.2917C17.2568 14.3056 16.6665 15.1875 15.9165 15.9375C15.1665 16.6875 14.2846 17.2743 13.2707 17.6979C12.2568 18.1215 11.1665 18.3333 9.99984 18.3333ZM9.99984 17.0833C11.9443 17.0833 13.6109 16.3889 14.9998 15C16.3887 13.6111 17.0832 11.9445 17.0832 10C17.0832 8.05556 16.3887 6.38889 14.9998 5.00001C13.6109 3.61112 11.9443 2.91667 9.99984 2.91667C8.05539 2.91667 6.38873 3.61112 4.99984 5.00001C3.61095 6.38889 2.9165 8.05556 2.9165 10C2.9165 11.9445 3.61095 13.6111 4.99984 15C6.38873 16.3889 8.05539 17.0833 9.99984 17.0833Z" fill="#113255"/>
</svg>
